<?xml version="1.0" encoding="utf-8"?>
<!-- Generator: Adobe Illustrator 19.2.1, SVG Export Plug-In . SVG Version: 6.00 Build 0)  -->
<svg version="1.1" id="layer" xmlns="http://www.w3.org/2000/svg" xmlns:xlink="http://www.w3.org/1999/xlink" x="0px" y="0px"
	 viewBox="0 0 652 652" style="enable-background:new 0 0 652 652;" xml:space="preserve">
<style type="text/css">
	.st0{fill:#353738;}
	.st1{fill:#A5C88F;}
	.st2{fill:#5C4B51;}
</style>
<g>
	<g>
		<g>
			<path class="st0" d="M240.3,268.8c0-0.8,0.8-1.5,1.5-1.5h41.4c23.2,0,33.8,11.4,33.8,28.5c0,11.4-5.3,18.6-12.2,22.8v0.4
				c7.2,2.7,14.1,11.4,14.1,23.9c0,20.9-14.1,30.8-36.8,30.8h-40.3c-0.8,0-1.5-0.8-1.5-1.5V268.8z M280.5,310.6
				c8.7,0,14.1-4.6,14.1-12.5c0-8-5.3-12.2-14.1-12.2h-16.3c-0.8,0-0.8,0.4-0.8,0.8v22.8c0,0.8,0.4,0.8,0.8,0.8h16.3V310.6z
				 M264.2,354.6h17.5c9.5,0,14.4-4.9,14.4-13.3c0-8-4.9-13.3-14.4-13.3h-17.5c-0.8,0-0.8,0.4-0.8,0.8v24.7
				C263,354.3,263.4,354.6,264.2,354.6"/>
			<path class="st0" d="M329.1,268.4c0-0.8,0.8-1.5,1.5-1.5h19.7c0.8,0,1.5,0.8,1.5,1.5v103.3c0,0.8-0.8,1.5-1.5,1.5h-19.7
				c-0.8,0-1.5-0.8-1.5-1.5V268.4z"/>
			<path class="st0" d="M392.5,373.2c-0.8,0-1.5-0.8-1.5-1.5v-83.2c0-0.8-0.4-0.8-0.8-0.8h-27c-0.8,0-1.5-0.8-1.5-1.5v-17.5
				c0-0.8,0.8-1.5,1.5-1.5h78.6c0.8,0,1.5,0.8,1.5,1.5v17.5c0,0.8-0.8,1.5-1.5,1.5h-27c-0.8,0-0.8,0.4-0.8,0.8v83.2
				c0,0.8-0.8,1.5-1.5,1.5H392.5z"/>
			<path class="st0" d="M445.7,360.7c-0.8-0.8-0.8-1.5-0.4-2.7l11.8-13.7c0.8-0.8,1.5-0.8,2.3,0c7.2,5.7,16.7,11,27.7,11
				c11,0,17.5-5.3,17.5-12.5c0-6.1-3.8-10.3-16.3-11.8l-5.7-0.8c-21.6-3-33.4-13.3-33.4-31.9c0-19.7,14.8-32.7,37.6-32.7
				c14.1,0,27,4.2,36.1,11c0.8,0.8,1.1,1.1,0.4,2.3l-9.5,14.1c-0.8,0.8-1.5,0.8-2.3,0.4c-8-5.3-15.9-8-24.7-8
				c-9.5,0-14.1,4.9-14.1,11.4c0,6.1,4.6,9.9,16.7,11.8l5.7,0.8c22,3,33.4,12.9,33.4,32.3c0,19.4-14.1,33.4-41.8,33.4
				C470,375.1,454.1,368.7,445.7,360.7"/>
			<path class="st0" d="M539.5,349.3c-2.3-7.2-3-13.3-3-28.9c0-15.6,0.8-21.6,3-28.9c5.3-17.1,20.1-25.8,38.7-25.8
				c18.6,0,33.4,8.7,38.7,25.8c2.3,7.2,3,13.3,3,28.9c0,15.6-0.8,21.6-3,28.9c-5.3,17.1-20.1,25.8-38.7,25.8
				C559.6,375.1,545.2,366.4,539.5,349.3 M594.9,343.2c1.1-3.8,1.5-9.1,1.5-22.8c0-13.7-0.4-19-1.5-22.8c-2.3-7.2-8-11.8-16.7-11.8
				c-8.7,0-14.4,4.6-16.7,11.8c-1.1,3.8-1.5,9.1-1.5,22.8c0,13.7,0.4,19,1.5,22.8c2.3,7.2,8,11.8,16.7,11.8
				C587,354.6,592.7,350.5,594.9,343.2"/>
			<path class="st1" d="M115.7,228.2c-7.6,0-15.2,0.8-22,2.7c-1.1,0-1.5,0.4-1.9,1.1c-0.4,0.8-0.8,1.5-0.8,1.9v56.6
				c0,0,0,1.1,0.4,1.5c0.4,0.4,1.1,0.4,1.9-0.4c6.5-4.6,14.1-7.2,22.4-7.2c21.6,0,39.1,17.5,39.1,39.1v0.8v84.3c0,0,0,0.8,0.4,1.1
				c0.4,0.4,0.8,0.4,1.5,0c32.3-15.2,55.1-48.2,55.1-86.6C211,271.1,168.5,228.2,115.7,228.2"/>
			<path class="st2" d="M140,355c-0.4-0.4-0.8-0.4-1.5,0c-6.5,4.6-14.4,7.6-22.8,7.6c-21.6,0-39.1-17.5-39.1-39.1v-97.2
				c0-0.8-0.4-1.5-0.8-2.3c-0.8-0.4-1.5-0.4-1.9-0.4H23c-1.1,0-1.9,0.4-2.3,0.8c-0.4,0.4-0.8,1.1-0.8,2.3c0,14.1,0,79.4,0,97.2
				c0,52.8,42.9,95.7,95.7,95.7c8,0,15.2-0.8,22.8-2.7c0.8-0.4,1.1-0.8,1.5-1.1c0.4-0.4,0.8-1.5,0.8-2.3v-57
				C140.4,356.5,140.4,355.4,140,355"/>
		</g>
	</g>
</g>
</svg>
